G04 ================== begin FILE IDENTIFICATION RECORD ==================*
G04 Layout Name:  C:/USERS/USER/DESKTOP/EX/DA CONVERTOR/allegro/DA CONVERTOR.brd*
G04 Film Name:    Silkt*
G04 File Format:  Gerber RS274X*
G04 File Origin:  Cadence Allegro 17.2-P019*
G04 Origin Date:  Wed Jul 31 17:39:55 2019*
G04 *
G04 Layer:  REF DES/SILKSCREEN_TOP*
G04 Layer:  PACKAGE GEOMETRY/SILKSCREEN_TOP*
G04 Layer:  BOARD GEOMETRY/SILKSCREEN_TOP*
G04 *
G04 Offset:    (0.000 0.000)*
G04 Mirror:    No*
G04 Mode:      Positive*
G04 Rotation:  0*
G04 FullContactRelief:  No*
G04 UndefLineWidth:     0.200*
G04 ================== end FILE IDENTIFICATION RECORD ====================*
%FSLAX25Y25*MOMM*%
%IR0*IPPOS*OFA0.00000B0.00000*MIA0B0*SFA1.00000B1.00000*%
%ADD10C,.5*%
%ADD11C,.2*%
G75*
%LPD*%
G75*
G54D10*
G01X3884800Y254000D02*
X3784800D01*
Y654000D01*
X3884800D01*
G01X3844800Y460700D02*
X3784800D01*
G01X3950000Y654000D02*
Y254000D01*
X4050000D01*
G01X4215200D02*
X4115200D01*
Y654000D01*
X4215200D01*
G01X4175200Y460700D02*
X4115200D01*
G01X4385400Y620700D02*
X4370400Y640700D01*
X4352900Y654000D01*
X4332900D01*
X4310400Y634000D01*
X4292900Y600700D01*
X4280400Y560700D01*
X4270400Y494000D01*
X4267900Y434000D01*
X4272900Y374000D01*
X4280400Y334000D01*
X4295400Y294000D01*
X4312900Y267300D01*
X4330400Y254000D01*
X4347900D01*
X4365400Y267300D01*
X4380400Y287300D01*
X4392900Y314000D01*
G01X4495600Y654000D02*
Y254000D01*
G01X4438100Y654000D02*
X4553100D01*
G01X4610800Y254000D02*
Y654000D01*
X4673300D01*
X4693300Y634000D01*
X4705800Y607300D01*
X4710800Y554000D01*
X4705800Y500700D01*
X4690800Y467300D01*
X4673300Y447300D01*
X4610800D01*
G01X4673300D02*
X4710800Y254000D01*
G01X4826000D02*
X4806000Y260700D01*
X4788500Y287300D01*
X4773500Y327300D01*
X4763500Y374000D01*
X4758500Y427300D01*
Y480700D01*
X4763500Y534000D01*
X4773500Y580700D01*
X4788500Y620700D01*
X4806000Y647300D01*
X4826000Y654000D01*
X4846000Y647300D01*
X4863500Y620700D01*
X4878500Y580700D01*
X4888500Y534000D01*
X4893500Y480700D01*
Y427300D01*
X4888500Y374000D01*
X4878500Y327300D01*
X4863500Y287300D01*
X4846000Y260700D01*
X4826000Y254000D01*
G01X4961200Y654000D02*
X5021200D01*
G01X4991200D02*
Y254000D01*
G01X4961200D02*
X5021200D01*
G01X5098900D02*
Y654000D01*
X5213900Y254000D01*
Y654000D01*
G01X5541800Y620700D02*
X5526800Y640700D01*
X5509300Y654000D01*
X5489300D01*
X5466800Y634000D01*
X5449300Y600700D01*
X5436800Y560700D01*
X5426800Y494000D01*
X5424300Y434000D01*
X5429300Y374000D01*
X5436800Y334000D01*
X5451800Y294000D01*
X5469300Y267300D01*
X5486800Y254000D01*
X5504300D01*
X5521800Y267300D01*
X5536800Y287300D01*
X5549300Y314000D01*
G01X5589500Y254000D02*
X5652000Y654000D01*
X5714500Y254000D01*
G01X5692000Y394000D02*
X5612000D01*
G01X5762200Y254000D02*
Y654000D01*
X5812200D01*
X5832200Y634000D01*
X5847200Y607300D01*
X5859700Y567300D01*
X5869700Y520700D01*
X5872200Y454000D01*
X5869700Y387300D01*
X5859700Y340700D01*
X5847200Y300700D01*
X5832200Y274000D01*
X5812200Y254000D01*
X5762200D01*
G01X3862400Y6350000D02*
Y6750000D01*
X3912400D01*
X3932400Y6730000D01*
X3947400Y6703300D01*
X3959900Y6663300D01*
X3969900Y6616700D01*
X3972400Y6550000D01*
X3969900Y6483300D01*
X3959900Y6436700D01*
X3947400Y6396700D01*
X3932400Y6370000D01*
X3912400Y6350000D01*
X3862400D01*
G01X4020100D02*
X4082600Y6750000D01*
X4145100Y6350000D01*
G01X4122600Y6490000D02*
X4042600D01*
G01X4468000Y6716700D02*
X4453000Y6736700D01*
X4435500Y6750000D01*
X4415500D01*
X4393000Y6730000D01*
X4375500Y6696700D01*
X4363000Y6656700D01*
X4353000Y6590000D01*
X4350500Y6530000D01*
X4355500Y6470000D01*
X4363000Y6430000D01*
X4378000Y6390000D01*
X4395500Y6363300D01*
X4413000Y6350000D01*
X4430500D01*
X4448000Y6363300D01*
X4463000Y6383300D01*
X4475500Y6410000D01*
G01X4578200Y6350000D02*
X4558200Y6356700D01*
X4540700Y6383300D01*
X4525700Y6423300D01*
X4515700Y6470000D01*
X4510700Y6523300D01*
Y6576700D01*
X4515700Y6630000D01*
X4525700Y6676700D01*
X4540700Y6716700D01*
X4558200Y6743300D01*
X4578200Y6750000D01*
X4598200Y6743300D01*
X4615700Y6716700D01*
X4630700Y6676700D01*
X4640700Y6630000D01*
X4645700Y6576700D01*
Y6523300D01*
X4640700Y6470000D01*
X4630700Y6423300D01*
X4615700Y6383300D01*
X4598200Y6356700D01*
X4578200Y6350000D01*
G01X4685900D02*
Y6750000D01*
X4800900Y6350000D01*
Y6750000D01*
G01X4846100D02*
X4908600Y6350000D01*
X4971100Y6750000D01*
G01X5123800Y6350000D02*
X5023800D01*
Y6750000D01*
X5123800D01*
G01X5083800Y6556700D02*
X5023800D01*
G01X5189000Y6350000D02*
Y6750000D01*
X5251500D01*
X5271500Y6730000D01*
X5284000Y6703300D01*
X5289000Y6650000D01*
X5284000Y6596700D01*
X5269000Y6563300D01*
X5251500Y6543300D01*
X5189000D01*
G01X5251500D02*
X5289000Y6350000D01*
G01X5404200Y6750000D02*
Y6350000D01*
G01X5346700Y6750000D02*
X5461700D01*
G01X5569400Y6350000D02*
X5549400Y6356700D01*
X5531900Y6383300D01*
X5516900Y6423300D01*
X5506900Y6470000D01*
X5501900Y6523300D01*
Y6576700D01*
X5506900Y6630000D01*
X5516900Y6676700D01*
X5531900Y6716700D01*
X5549400Y6743300D01*
X5569400Y6750000D01*
X5589400Y6743300D01*
X5606900Y6716700D01*
X5621900Y6676700D01*
X5631900Y6630000D01*
X5636900Y6576700D01*
Y6523300D01*
X5631900Y6470000D01*
X5621900Y6423300D01*
X5606900Y6383300D01*
X5589400Y6356700D01*
X5569400Y6350000D01*
G01X5684600D02*
Y6750000D01*
X5747100D01*
X5767100Y6730000D01*
X5779600Y6703300D01*
X5784600Y6650000D01*
X5779600Y6596700D01*
X5764600Y6563300D01*
X5747100Y6543300D01*
X5684600D01*
G01X5747100D02*
X5784600Y6350000D01*
G54D11*
G01X284100Y4470400D02*
X292100Y4457700D01*
X301800Y4449200D01*
X313000Y4445000D01*
X325900Y4449200D01*
X335600Y4457700D01*
X345200Y4470400D01*
X348400Y4487300D01*
Y4572000D01*
G01X415200Y4550800D02*
X424800Y4563500D01*
X436100Y4569900D01*
X449000Y4572000D01*
X465100Y4567800D01*
X476300Y4557200D01*
X479500Y4544500D01*
X477900Y4531800D01*
X471500Y4521200D01*
X439300Y4500000D01*
X424800Y4485200D01*
X415200Y4464000D01*
X412000Y4445000D01*
X479500D01*
G01X627000Y3373000D02*
X373000D01*
Y4389000D01*
X627000D01*
Y3373000D01*
G01X1050100Y4815400D02*
X1040500Y4821800D01*
X1029200Y4826000D01*
X1016400D01*
X1001900Y4819600D01*
X990600Y4809100D01*
X982600Y4796400D01*
X976100Y4775200D01*
X974500Y4756100D01*
X977800Y4737100D01*
X982600Y4724400D01*
X992200Y4711700D01*
X1003500Y4703200D01*
X1014700Y4699000D01*
X1026000D01*
X1037300Y4703200D01*
X1046900Y4709600D01*
X1055000Y4718000D01*
G01X1144200Y4699000D02*
Y4826000D01*
X1124900Y4800600D01*
G01Y4699000D02*
X1163500D01*
G01X1524000Y4445000D02*
G03I-254000J0D01*
G01X1741400Y5651500D02*
Y5560500D01*
X1747800Y5541400D01*
X1760700Y5528700D01*
X1776700Y5524500D01*
X1792800Y5528700D01*
X1805700Y5541400D01*
X1812100Y5560500D01*
Y5651500D01*
G01X1906200Y5524500D02*
Y5651500D01*
X1886900Y5626100D01*
G01Y5524500D02*
X1925500D01*
G01X1651000Y4927600D02*
Y5080000D01*
X1714500Y5143500D01*
Y5270500D01*
X1651000Y5334000D01*
Y5486400D01*
X2667000D01*
Y4927600D01*
X1651000D01*
G01X2884400Y1841500D02*
Y1750500D01*
X2890800Y1731400D01*
X2903700Y1718700D01*
X2919700Y1714500D01*
X2935800Y1718700D01*
X2948700Y1731400D01*
X2955100Y1750500D01*
Y1841500D01*
G01X3013900Y1739900D02*
X3023500Y1725100D01*
X3036400Y1716600D01*
X3050900Y1714500D01*
X3063700Y1716600D01*
X3076600Y1727200D01*
X3084600Y1739900D01*
X3086200Y1752600D01*
X3083000Y1767400D01*
X3071800Y1778000D01*
X3060500Y1782200D01*
X3046000D01*
G01X3060500D02*
X3070200Y1788600D01*
X3078200Y1799200D01*
X3081400Y1811900D01*
X3078200Y1824600D01*
X3070200Y1835100D01*
X3055700Y1841500D01*
X3041200Y1839400D01*
X3026700Y1830900D01*
G01X2857500Y1117600D02*
X4762500D01*
Y1676400D01*
X2857500D01*
Y1524000D01*
X2921000Y1460500D01*
Y1333500D01*
X2857500Y1270000D01*
Y1117600D01*
G01X3175000Y2946400D02*
Y3657600D01*
X3429000D01*
Y2946400D01*
X3175000D01*
G01X2667000D02*
Y3657600D01*
X2921000D01*
Y2946400D01*
X2667000D01*
G01X2904100Y3416300D02*
Y3495000D01*
X2928500D01*
X2936300Y3491100D01*
X2941100Y3485800D01*
X2943100Y3475300D01*
X2941100Y3464800D01*
X2935300Y3458300D01*
X2928500Y3454300D01*
X2904100D01*
G01X2928500D02*
X2943100Y3416300D01*
G01X3002300D02*
Y3495000D01*
X2990600Y3479300D01*
G01Y3416300D02*
X3014000D01*
G01X3062500Y3481900D02*
X3068300Y3489800D01*
X3075200Y3493700D01*
X3082900Y3495000D01*
X3092700Y3492400D01*
X3099500Y3485800D01*
X3101400Y3477900D01*
X3100500Y3470100D01*
X3096600Y3463500D01*
X3077100Y3450400D01*
X3068300Y3441200D01*
X3062500Y3428100D01*
X3060600Y3416300D01*
X3101400D01*
G01X3429000Y5689600D02*
Y4978400D01*
X3175000D01*
Y5689600D01*
X3429000D01*
G01X3179600Y5778500D02*
Y5857200D01*
X3204000D01*
X3211800Y5853300D01*
X3216600Y5848000D01*
X3218600Y5837500D01*
X3216600Y5827000D01*
X3210800Y5820500D01*
X3204000Y5816500D01*
X3179600D01*
G01X3204000D02*
X3218600Y5778500D01*
G01X3256400Y5794200D02*
X3262200Y5785100D01*
X3270000Y5779800D01*
X3278800Y5778500D01*
X3286600Y5779800D01*
X3294300Y5786400D01*
X3299200Y5794200D01*
X3300200Y5802100D01*
X3298200Y5811300D01*
X3291400Y5817800D01*
X3284600Y5820500D01*
X3275900D01*
G01X3284600D02*
X3290500Y5824400D01*
X3295300Y5831000D01*
X3297300Y5838800D01*
X3295300Y5846700D01*
X3290500Y5853300D01*
X3281700Y5857200D01*
X3272900Y5855900D01*
X3264200Y5850600D01*
G01X3683000Y2946400D02*
Y3657600D01*
X3937000D01*
Y2946400D01*
X3683000D01*
G01X3959400Y3416300D02*
Y3495000D01*
X3983800D01*
X3991600Y3491100D01*
X3996400Y3485800D01*
X3998400Y3475300D01*
X3996400Y3464800D01*
X3990600Y3458300D01*
X3983800Y3454300D01*
X3959400D01*
G01X3983800D02*
X3998400Y3416300D01*
G01X4041100Y3425500D02*
X4047900Y3418900D01*
X4055700Y3416300D01*
X4063400Y3418900D01*
X4070300Y3426800D01*
X4075100Y3438600D01*
X4077100Y3450400D01*
Y3464800D01*
X4075100Y3476600D01*
X4070300Y3487100D01*
X4064400Y3492400D01*
X4057600Y3495000D01*
X4049800Y3492400D01*
X4044000Y3487100D01*
X4040100Y3479300D01*
X4038100Y3468800D01*
X4040100Y3459600D01*
X4044900Y3450400D01*
X4050800Y3445200D01*
X4057600Y3443800D01*
X4065400Y3446500D01*
X4071200Y3453000D01*
X4077100Y3464800D01*
G01X3412100Y3416300D02*
Y3495000D01*
X3436500D01*
X3444300Y3491100D01*
X3449100Y3485800D01*
X3451100Y3475300D01*
X3449100Y3464800D01*
X3443300Y3458300D01*
X3436500Y3454300D01*
X3412100D01*
G01X3436500D02*
X3451100Y3416300D01*
G01X3510300D02*
Y3495000D01*
X3498600Y3479300D01*
G01Y3416300D02*
X3522000D01*
G01X3589000D02*
Y3495000D01*
X3577300Y3479300D01*
G01Y3416300D02*
X3600700D01*
G01X3937000Y5689600D02*
Y4978400D01*
X3683000D01*
Y5689600D01*
X3937000D01*
G01X3687600Y5778500D02*
Y5857200D01*
X3712000D01*
X3719800Y5853300D01*
X3724600Y5848000D01*
X3726600Y5837500D01*
X3724600Y5827000D01*
X3718800Y5820500D01*
X3712000Y5816500D01*
X3687600D01*
G01X3712000D02*
X3726600Y5778500D01*
G01X3783900D02*
X3785800Y5795600D01*
X3788700Y5810000D01*
X3792600Y5823100D01*
X3797500Y5837500D01*
X3805300Y5857200D01*
X3766300D01*
G01X4132100Y5715000D02*
Y5793700D01*
X4156500D01*
X4164300Y5789800D01*
X4169100Y5784500D01*
X4171100Y5774000D01*
X4169100Y5763500D01*
X4163300Y5757000D01*
X4156500Y5753000D01*
X4132100D01*
G01X4156500D02*
X4171100Y5715000D01*
G01X4230300D02*
Y5793700D01*
X4218600Y5778000D01*
G01Y5715000D02*
X4242000D01*
G01X4953000Y3657600D02*
Y2946400D01*
X4699000D01*
Y3657600D01*
X4953000D01*
G01X4715900Y3187700D02*
Y3109000D01*
X4691500D01*
X4683700Y3112900D01*
X4678900Y3118200D01*
X4676900Y3128700D01*
X4678900Y3139200D01*
X4684700Y3145700D01*
X4691500Y3149700D01*
X4715900D01*
G01X4691500D02*
X4676900Y3187700D01*
G01X4617700D02*
Y3109000D01*
X4629400Y3124700D01*
G01Y3187700D02*
X4606000D01*
G01X4560400Y3172000D02*
X4554600Y3181100D01*
X4546800Y3186400D01*
X4538000Y3187700D01*
X4530200Y3186400D01*
X4522500Y3179800D01*
X4517600Y3172000D01*
X4516600Y3164100D01*
X4518600Y3154900D01*
X4525400Y3148400D01*
X4532200Y3145700D01*
X4540900D01*
G01X4532200D02*
X4526300Y3141800D01*
X4521500Y3135200D01*
X4519500Y3127400D01*
X4521500Y3119500D01*
X4526300Y3112900D01*
X4535100Y3109000D01*
X4543900Y3110300D01*
X4552600Y3115600D01*
G01X4191000Y2946400D02*
Y3657600D01*
X4445000D01*
Y2946400D01*
X4191000D01*
G01X4428100Y3416300D02*
Y3495000D01*
X4452500D01*
X4460300Y3491100D01*
X4465100Y3485800D01*
X4467100Y3475300D01*
X4465100Y3464800D01*
X4459300Y3458300D01*
X4452500Y3454300D01*
X4428100D01*
G01X4452500D02*
X4467100Y3416300D01*
G01X4526300D02*
Y3495000D01*
X4514600Y3479300D01*
G01Y3416300D02*
X4538000D01*
G01X4616700D02*
Y3495000D01*
X4580700Y3438600D01*
X4629300D01*
G01X4953000Y5689600D02*
Y4978400D01*
X4699000D01*
Y5689600D01*
X4953000D01*
G01X4191000Y4978400D02*
Y5689600D01*
X4445000D01*
Y4978400D01*
X4191000D01*
G01X4640100Y5715000D02*
Y5793700D01*
X4664500D01*
X4672300Y5789800D01*
X4677100Y5784500D01*
X4679100Y5774000D01*
X4677100Y5763500D01*
X4671300Y5757000D01*
X4664500Y5753000D01*
X4640100D01*
G01X4664500D02*
X4679100Y5715000D01*
G01X4738300D02*
X4745100Y5716300D01*
X4752900Y5720200D01*
X4757800Y5726800D01*
X4759700Y5736000D01*
X4757800Y5745200D01*
X4751900Y5753000D01*
X4743200Y5757000D01*
X4733400D01*
X4727600Y5759600D01*
X4722700Y5766200D01*
X4720800Y5775300D01*
X4723700Y5784500D01*
X4730500Y5791100D01*
X4738300Y5793700D01*
X4746100Y5791100D01*
X4752900Y5784500D01*
X4755800Y5775300D01*
X4753900Y5766200D01*
X4749000Y5759600D01*
X4743200Y5757000D01*
X4733400D01*
X4724700Y5753000D01*
X4718800Y5745200D01*
X4716900Y5736000D01*
X4718800Y5726800D01*
X4723700Y5720200D01*
X4731500Y5716300D01*
X4738300Y5715000D01*
G01X5715000Y2133600D02*
Y1422400D01*
X5461000D01*
Y2133600D01*
X5715000D01*
G01X5207000D02*
Y1422400D01*
X4953000D01*
Y2133600D01*
X5207000D01*
G01X4981800Y2159000D02*
Y2237700D01*
X5006200D01*
X5014000Y2233800D01*
X5018800Y2228500D01*
X5020800Y2218000D01*
X5018800Y2207500D01*
X5013000Y2201000D01*
X5006200Y2197000D01*
X4981800D01*
G01X5006200D02*
X5020800Y2159000D01*
G01X5080000D02*
Y2237700D01*
X5068300Y2222000D01*
G01Y2159000D02*
X5091700D01*
G01X5156800D02*
X5158700Y2176100D01*
X5161600Y2190500D01*
X5165500Y2203600D01*
X5170400Y2218000D01*
X5178200Y2237700D01*
X5139200D01*
G01X5426300Y2159000D02*
Y2237700D01*
X5450700D01*
X5458500Y2233800D01*
X5463300Y2228500D01*
X5465300Y2218000D01*
X5463300Y2207500D01*
X5457500Y2201000D01*
X5450700Y2197000D01*
X5426300D01*
G01X5450700D02*
X5465300Y2159000D01*
G01X5524500D02*
Y2237700D01*
X5512800Y2222000D01*
G01Y2159000D02*
X5536200D01*
G01X5603200D02*
X5610000Y2160300D01*
X5617800Y2164200D01*
X5622700Y2170800D01*
X5624600Y2180000D01*
X5622700Y2189200D01*
X5616800Y2197000D01*
X5608100Y2201000D01*
X5598300D01*
X5592500Y2203600D01*
X5587600Y2210200D01*
X5585700Y2219300D01*
X5588600Y2228500D01*
X5595400Y2235100D01*
X5603200Y2237700D01*
X5611000Y2235100D01*
X5617800Y2228500D01*
X5620700Y2219300D01*
X5618800Y2210200D01*
X5613900Y2203600D01*
X5608100Y2201000D01*
X5598300D01*
X5589600Y2197000D01*
X5583700Y2189200D01*
X5581800Y2180000D01*
X5583700Y2170800D01*
X5588600Y2164200D01*
X5596400Y2160300D01*
X5603200Y2159000D01*
G01X5207000Y2946400D02*
Y3657600D01*
X5461000D01*
Y2946400D01*
X5207000D01*
G01X5444100Y3416300D02*
Y3495000D01*
X5468500D01*
X5476300Y3491100D01*
X5481100Y3485800D01*
X5483100Y3475300D01*
X5481100Y3464800D01*
X5475300Y3458300D01*
X5468500Y3454300D01*
X5444100D01*
G01X5468500D02*
X5483100Y3416300D01*
G01X5542300D02*
Y3495000D01*
X5530600Y3479300D01*
G01Y3416300D02*
X5554000D01*
G01X5599600Y3428100D02*
X5605400Y3421500D01*
X5612200Y3417600D01*
X5621000Y3416300D01*
X5629800Y3418900D01*
X5636600Y3424200D01*
X5641400Y3433400D01*
X5642400Y3443800D01*
X5640500Y3454300D01*
X5635600Y3460900D01*
X5628800Y3466100D01*
X5622000Y3467500D01*
X5615200Y3466100D01*
X5606400Y3460900D01*
X5609300Y3495000D01*
X5635600D01*
G01X5715000Y2946400D02*
Y3657600D01*
X5969000D01*
Y2946400D01*
X5715000D01*
G01X5991400Y3416300D02*
Y3495000D01*
X6015800D01*
X6023600Y3491100D01*
X6028400Y3485800D01*
X6030400Y3475300D01*
X6028400Y3464800D01*
X6022600Y3458300D01*
X6015800Y3454300D01*
X5991400D01*
G01X6015800D02*
X6030400Y3416300D01*
G01X6071100Y3449100D02*
X6077900Y3458300D01*
X6083800Y3463500D01*
X6091500Y3466100D01*
X6098400Y3463500D01*
X6103200Y3458300D01*
X6107100Y3450400D01*
X6108100Y3441200D01*
X6107100Y3433400D01*
X6103200Y3425500D01*
X6097400Y3418900D01*
X6090600Y3416300D01*
X6082800Y3418900D01*
X6076000Y3426800D01*
X6072100Y3438600D01*
X6071100Y3451700D01*
X6073100Y3468800D01*
X6076000Y3477900D01*
X6080800Y3487100D01*
X6087700Y3493700D01*
X6094500Y3495000D01*
X6101300Y3492400D01*
X6106100Y3485800D01*
G01X5969000Y4419600D02*
Y4572000D01*
X6032500Y4635500D01*
Y4762500D01*
X5969000Y4826000D01*
Y4978400D01*
X6985000D01*
Y4419600D01*
X5969000D01*
G01X5932400Y5143500D02*
Y5052500D01*
X5938800Y5033400D01*
X5951700Y5020700D01*
X5967700Y5016500D01*
X5983800Y5020700D01*
X5996700Y5033400D01*
X6003100Y5052500D01*
Y5143500D01*
G01X6066700Y5122300D02*
X6076300Y5135000D01*
X6087600Y5141400D01*
X6100500Y5143500D01*
X6116600Y5139300D01*
X6127800Y5128700D01*
X6131000Y5116000D01*
X6129400Y5103300D01*
X6123000Y5092700D01*
X6090800Y5071500D01*
X6076300Y5056700D01*
X6066700Y5035500D01*
X6063500Y5016500D01*
X6131000D01*
G01X5973600Y6032500D02*
Y6111200D01*
X5998000D01*
X6005800Y6107300D01*
X6010600Y6102000D01*
X6012600Y6091500D01*
X6010600Y6081000D01*
X6004800Y6074500D01*
X5998000Y6070500D01*
X5973600D01*
G01X5998000D02*
X6012600Y6032500D01*
G01X6053300Y6098100D02*
X6059100Y6106000D01*
X6066000Y6109900D01*
X6073700Y6111200D01*
X6083500Y6108600D01*
X6090300Y6102000D01*
X6092200Y6094100D01*
X6091300Y6086300D01*
X6087400Y6079700D01*
X6067900Y6066600D01*
X6059100Y6057400D01*
X6053300Y6044300D01*
X6051400Y6032500D01*
X6092200D01*
G01X5994400Y5969000D02*
X6705600D01*
Y5715000D01*
X5994400D01*
Y5969000D01*
G01X7747000Y1676400D02*
Y2387600D01*
X8001000D01*
Y1676400D01*
X7747000D01*
G01X7712300Y2413000D02*
Y2491700D01*
X7736700D01*
X7744500Y2487800D01*
X7749300Y2482500D01*
X7751300Y2472000D01*
X7749300Y2461500D01*
X7743500Y2455000D01*
X7736700Y2451000D01*
X7712300D01*
G01X7736700D02*
X7751300Y2413000D01*
G01X7810500D02*
Y2491700D01*
X7798800Y2476000D01*
G01Y2413000D02*
X7822200D01*
G01X7870700Y2445800D02*
X7877500Y2455000D01*
X7883400Y2460200D01*
X7891100Y2462800D01*
X7898000Y2460200D01*
X7902800Y2455000D01*
X7906700Y2447100D01*
X7907700Y2437900D01*
X7906700Y2430100D01*
X7902800Y2422200D01*
X7897000Y2415600D01*
X7890200Y2413000D01*
X7882400Y2415600D01*
X7875600Y2423500D01*
X7871700Y2435300D01*
X7870700Y2448400D01*
X7872700Y2465500D01*
X7875600Y2474600D01*
X7880400Y2483800D01*
X7887300Y2490400D01*
X7894100Y2491700D01*
X7900900Y2489100D01*
X7905700Y2482500D01*
G01X7493000Y3149600D02*
Y3302000D01*
X7556500Y3365500D01*
Y3492500D01*
X7493000Y3556000D01*
Y3708400D01*
X8509000D01*
Y3149600D01*
X7493000D01*
G01X7456400Y3873500D02*
Y3782500D01*
X7462800Y3763400D01*
X7475700Y3750700D01*
X7491700Y3746500D01*
X7507800Y3750700D01*
X7520700Y3763400D01*
X7527100Y3782500D01*
Y3873500D01*
G01X7640600Y3746500D02*
Y3873500D01*
X7581000Y3782500D01*
X7661500D01*
G01X8001000Y5842000D02*
Y5359400D01*
X7747000D01*
Y5842000D01*
X8001000D01*
G01X7239000Y5232400D02*
Y5943600D01*
X7493000D01*
Y5232400D01*
X7239000D01*
G01X7752400Y5905500D02*
Y5969000D01*
X7765900D01*
X7771400Y5965800D01*
X7775400Y5961600D01*
X7778800Y5955200D01*
X7781500Y5947800D01*
X7782200Y5937200D01*
X7781500Y5926700D01*
X7778800Y5919300D01*
X7775400Y5912900D01*
X7771400Y5908700D01*
X7765900Y5905500D01*
X7752400D01*
G01X7823100D02*
Y5969000D01*
X7815000Y5956300D01*
G01Y5905500D02*
X7831200D01*
G01X7243600Y5969000D02*
Y6047700D01*
X7268000D01*
X7275800Y6043800D01*
X7280600Y6038500D01*
X7282600Y6028000D01*
X7280600Y6017500D01*
X7274800Y6011000D01*
X7268000Y6007000D01*
X7243600D01*
G01X7268000D02*
X7282600Y5969000D01*
G01X7353500D02*
Y6047700D01*
X7317500Y5991300D01*
X7366100D01*
G01X8001000Y5753100D02*
X7747000D01*
G01X8001000Y5765800D02*
X7747000D01*
G01X8509000Y2387600D02*
Y1676400D01*
X8255000D01*
Y2387600D01*
X8509000D01*
G01X8220300Y2413000D02*
Y2491700D01*
X8244700D01*
X8252500Y2487800D01*
X8257300Y2482500D01*
X8259300Y2472000D01*
X8257300Y2461500D01*
X8251500Y2455000D01*
X8244700Y2451000D01*
X8220300D01*
G01X8244700D02*
X8259300Y2413000D01*
G01X8318500D02*
Y2491700D01*
X8306800Y2476000D01*
G01Y2413000D02*
X8330200D01*
G01X8397200Y2491700D02*
X8389400Y2489100D01*
X8383600Y2482500D01*
X8379700Y2474600D01*
X8376800Y2464200D01*
X8375800Y2452300D01*
X8376800Y2440500D01*
X8379700Y2430100D01*
X8383600Y2422200D01*
X8389400Y2415600D01*
X8397200Y2413000D01*
X8405000Y2415600D01*
X8410800Y2422200D01*
X8414700Y2430100D01*
X8417600Y2440500D01*
X8418600Y2452300D01*
X8417600Y2464200D01*
X8414700Y2474600D01*
X8410800Y2482500D01*
X8405000Y2489100D01*
X8397200Y2491700D01*
G01X8255000Y5232400D02*
Y5943600D01*
X8509000D01*
Y5232400D01*
X8255000D01*
G01X8259600Y5969000D02*
Y6047700D01*
X8284000D01*
X8291800Y6043800D01*
X8296600Y6038500D01*
X8298600Y6028000D01*
X8296600Y6017500D01*
X8290800Y6011000D01*
X8284000Y6007000D01*
X8259600D01*
G01X8284000D02*
X8298600Y5969000D01*
G01X8336400Y5980800D02*
X8342200Y5974200D01*
X8349000Y5970300D01*
X8357800Y5969000D01*
X8366600Y5971600D01*
X8373400Y5976900D01*
X8378200Y5986100D01*
X8379200Y5996500D01*
X8377300Y6007000D01*
X8372400Y6013600D01*
X8365600Y6018800D01*
X8358800Y6020200D01*
X8352000Y6018800D01*
X8343200Y6013600D01*
X8346100Y6047700D01*
X8372400D01*
G01X9627000Y2873000D02*
X9373000D01*
Y3381000D01*
X9627000D01*
Y2873000D01*
G01X9339100Y3444700D02*
X9344000Y3436900D01*
X9349800Y3431600D01*
X9356700Y3429000D01*
X9364400Y3431600D01*
X9370300Y3436900D01*
X9376100Y3444700D01*
X9378100Y3455200D01*
Y3507700D01*
G01X9437300Y3429000D02*
Y3507700D01*
X9425600Y3492000D01*
G01Y3429000D02*
X9449000D01*
G01X9017000Y5842000D02*
Y5359400D01*
X8763000D01*
Y5842000D01*
X9017000D01*
G01X8768400D02*
Y5905500D01*
X8781900D01*
X8787400Y5902300D01*
X8791400Y5898100D01*
X8794800Y5891700D01*
X8797500Y5884300D01*
X8798200Y5873700D01*
X8797500Y5863200D01*
X8794800Y5855800D01*
X8791400Y5849400D01*
X8787400Y5845200D01*
X8781900Y5842000D01*
X8768400D01*
G01X8826200Y5894900D02*
X8830300Y5901300D01*
X8835000Y5904400D01*
X8840500Y5905500D01*
X8847200Y5903400D01*
X8852000Y5898100D01*
X8853300Y5891700D01*
X8852600Y5885400D01*
X8849900Y5880100D01*
X8836400Y5869500D01*
X8830300Y5862100D01*
X8826200Y5851500D01*
X8824900Y5842000D01*
X8853300D01*
G01X9017000Y5753100D02*
X8763000D01*
G01X9017000Y5765800D02*
X8763000D01*
M02*
