G04 ================== begin FILE IDENTIFICATION RECORD ==================*
G04 Layout Name:  C:/USERS/USER/DESKTOP/EX/DA CONVERTOR/allegro/DA CONVERTOR.brd*
G04 Film Name:    SolderB*
G04 File Format:  Gerber RS274X*
G04 File Origin:  Cadence Allegro 17.2-P019*
G04 Origin Date:  Wed Jul 31 17:39:54 2019*
G04 *
G04 Layer:  PIN/SOLDERMASK_BOTTOM*
G04 Layer:  PACKAGE GEOMETRY/SILKSCREEN_BOTTOM*
G04 Layer:  BOARD GEOMETRY/SOLDERMASK_BOTTOM*
G04 *
G04 Offset:    (0.000 0.000)*
G04 Mirror:    No*
G04 Mode:      Positive*
G04 Rotation:  0*
G04 FullContactRelief:  No*
G04 UndefLineWidth:     0.000*
G04 ================== end FILE IDENTIFICATION RECORD ====================*
%FSLAX25Y25*MOMM*%
%IR0*IPPOS*OFA0.00000B0.00000*MIA0B0*SFA1.00000B1.00000*%
%ADD13C,2.032*%
%ADD11C,1.905*%
%ADD10C,3.683*%
%ADD12R,1.905X1.905*%
%LPD*%
G75*
G54D10*
X500000Y500000D03*
Y6500000D03*
X9500000Y500000D03*
Y6500000D03*
G54D11*
X500000Y4008000D03*
Y3754000D03*
Y3500000D03*
Y4262000D03*
X1270000Y4318000D03*
Y4572000D03*
X1778000Y5588000D03*
X2032000Y4826000D03*
X2286000D03*
X2540000D03*
X2032000Y5588000D03*
X2286000D03*
X2540000D03*
X3302000Y1016000D03*
Y1778000D03*
X3048000D03*
X4064000Y1016000D03*
X3810000D03*
X3556000D03*
X4064000Y1778000D03*
X3810000D03*
X3556000D03*
X4572000Y1016000D03*
X4318000D03*
X4572000Y1778000D03*
X4318000D03*
X6350000Y4318000D03*
Y5080000D03*
X6096000D03*
X6858000Y4318000D03*
X6604000D03*
X6858000Y5080000D03*
X6604000D03*
X7874000Y3048000D03*
Y3810000D03*
X7620000D03*
X7874000Y5105400D03*
X8382000Y3048000D03*
X8128000D03*
X8382000Y3810000D03*
X8128000D03*
X9500000Y3254000D03*
Y3000000D03*
X8890000Y5105400D03*
G54D12*
X1778000Y4826000D03*
X3048000Y1016000D03*
X6096000Y4318000D03*
X7620000Y3048000D03*
X7874000Y6096000D03*
X8890000D03*
G54D13*
X3302000Y2794000D03*
X2794000D03*
Y3810000D03*
X3302000D03*
Y4826000D03*
Y5842000D03*
X3810000Y2794000D03*
Y3810000D03*
Y4826000D03*
Y5842000D03*
X4826000Y2794000D03*
X4318000D03*
Y3810000D03*
X4826000D03*
Y4826000D03*
X4318000D03*
X4826000Y5842000D03*
X4318000D03*
X5588000Y1270000D03*
X5080000D03*
X5588000Y2286000D03*
X5080000D03*
X5334000Y2794000D03*
Y3810000D03*
X5842000Y2794000D03*
Y3810000D03*
Y5842000D03*
X6858000D03*
X7874000Y1524000D03*
Y2540000D03*
X7366000Y5080000D03*
Y6096000D03*
X8382000Y1524000D03*
Y2540000D03*
Y5080000D03*
Y6096000D03*
M02*
