G04 ================== begin FILE IDENTIFICATION RECORD ==================*
G04 Layout Name:  C:/USERS/USER/DESKTOP/EX/DA CONVERTOR/allegro/DA CONVERTOR.brd*
G04 Film Name:    TOP*
G04 File Format:  Gerber RS274X*
G04 File Origin:  Cadence Allegro 17.2-P019*
G04 Origin Date:  Wed Jul 31 17:39:55 2019*
G04 *
G04 Layer:  ETCH/TOP*
G04 Layer:  PIN/TOP*
G04 Layer:  VIA CLASS/TOP*
G04 *
G04 Offset:    (0.000 0.000)*
G04 Mirror:    No*
G04 Mode:      Positive*
G04 Rotation:  0*
G04 FullContactRelief:  No*
G04 UndefLineWidth:     0.000*
G04 ================== end FILE IDENTIFICATION RECORD ====================*
%FSLAX25Y25*MOMM*%
%IR0*IPPOS*OFA0.00000B0.00000*MIA0B0*SFA1.00000B1.00000*%
%ADD11C,1.524*%
%ADD13C,1.651*%
%ADD12R,1.524X1.524*%
%ADD10C,.635*%
%ADD14C,1.*%
%ADD15C,.5*%
G75*
%LPD*%
G75*
G54D10*
X500000Y500000D03*
Y6500000D03*
X9500000Y500000D03*
Y6500000D03*
G54D11*
X500000Y4008000D03*
Y3754000D03*
Y3500000D03*
Y4262000D03*
X1270000Y4318000D03*
Y4572000D03*
X1778000Y5588000D03*
X2032000Y4826000D03*
X2286000D03*
X2540000D03*
X2032000Y5588000D03*
X2286000D03*
X2540000D03*
X3302000Y1016000D03*
Y1778000D03*
X3048000D03*
X4064000Y1016000D03*
X3810000D03*
X3556000D03*
X4064000Y1778000D03*
X3810000D03*
X3556000D03*
X4572000Y1016000D03*
X4318000D03*
X4572000Y1778000D03*
X4318000D03*
X6350000Y4318000D03*
Y5080000D03*
X6096000D03*
X6858000Y4318000D03*
X6604000D03*
X6858000Y5080000D03*
X6604000D03*
X7874000Y3048000D03*
Y3810000D03*
X7620000D03*
X7874000Y5105400D03*
X8382000Y3048000D03*
X8128000D03*
X8382000Y3810000D03*
X8128000D03*
X9500000Y3254000D03*
Y3000000D03*
X8890000Y5105400D03*
G54D12*
X1778000Y4826000D03*
X3048000Y1016000D03*
X6096000Y4318000D03*
X7620000Y3048000D03*
X7874000Y6096000D03*
X8890000D03*
G54D13*
X3302000Y2794000D03*
X2794000D03*
Y3810000D03*
X3302000D03*
Y4826000D03*
Y5842000D03*
X3810000Y2794000D03*
Y3810000D03*
Y4826000D03*
Y5842000D03*
X4826000Y2794000D03*
X4318000D03*
Y3810000D03*
X4826000D03*
Y4826000D03*
X4318000D03*
X4826000Y5842000D03*
X4318000D03*
X5588000Y1270000D03*
X5080000D03*
X5588000Y2286000D03*
X5080000D03*
X5334000Y2794000D03*
Y3810000D03*
X5842000Y2794000D03*
Y3810000D03*
Y5842000D03*
X6858000D03*
X7874000Y1524000D03*
Y2540000D03*
X7366000Y5080000D03*
Y6096000D03*
X8382000Y1524000D03*
Y2540000D03*
Y5080000D03*
Y6096000D03*
G54D14*
G01X500000Y3500000D02*
X2122500D01*
X2540000Y3917500D01*
Y4572000D01*
G01X500000Y4262000D02*
Y4754400D01*
X1651100Y5905500D01*
X1968500D01*
G01X2540000Y4572000D02*
Y4826000D01*
G01X6858000Y4318000D02*
Y4472000D01*
X6758000Y4572000D01*
X2540000D01*
G01X2032000Y5588000D02*
Y5778400D01*
X1968500Y5841900D01*
Y5905500D01*
G01X6350000Y5080000D02*
Y5231600D01*
X6247600Y5334000D01*
X3175000D01*
X2603500Y5905500D01*
X1968500D01*
G54D15*
G01X2286000Y4826000D02*
Y4622000D01*
X2236000Y4572000D01*
X1270000D01*
G01X4318000Y4826000D02*
Y4966400D01*
X4267900Y5016500D01*
X2336000D01*
X2286000Y4966500D01*
Y4826000D01*
G01X3429000Y2032000D02*
X2794000D01*
X2730500Y1968500D01*
Y939000D01*
X2780500Y889000D01*
X2998000D01*
X3048000Y939000D01*
Y1016000D01*
G01X8382000Y6096000D02*
Y6173000D01*
X8432000Y6223000D01*
X9144000D01*
X9271000Y6096000D01*
Y3175000D01*
X8890000Y2794000D01*
X7620000D01*
X7429500Y2603500D01*
Y1206500D01*
X7239000Y1016000D01*
X4953000D01*
X4635500Y1333500D01*
X3098000D01*
X3048000Y1383500D01*
Y1778000D01*
G01X3302000Y2794000D02*
Y2590000D01*
X3352000Y2540000D01*
X4776000D01*
X4826000Y2590000D01*
Y2794000D01*
G01X3302000Y3810000D02*
X3810000D01*
G01X3302000Y5842000D02*
Y6046000D01*
X3352000Y6096000D01*
X5792000D01*
X5842000Y6046000D01*
Y5842000D01*
G01X3429000Y2032000D02*
X3556000Y1905000D01*
Y1778000D01*
G01X5080000Y2286000D02*
X4572000D01*
X4318000Y2032000D01*
X3429000D01*
G01X8128000Y3048000D02*
Y3429000D01*
X8001000Y3556000D01*
X3873500D01*
X3810000Y3619500D01*
Y3810000D01*
G01Y5842000D02*
X4318000D01*
G01Y3810000D02*
X4826000D01*
G01X5080000Y1270000D02*
X5588000D01*
G01X6604000Y5080000D02*
Y5157000D01*
X6654000Y5207000D01*
X7316000D01*
X7366000Y5157000D01*
Y5080000D01*
G01X7874000Y5105400D02*
X8223600D01*
X8249000Y5080000D01*
X8382000D01*
G01Y2540000D02*
X9398000D01*
X9500000Y2642000D01*
Y3000000D01*
G01X8382000Y6096000D02*
X8890000D01*
M02*
